<svg xmlns="http://www.w3.org/2000/svg" xmlns:xlink="http://www.w3.org/1999/xlink" width="1280" height="600" viewBox="0 0 1280 600">
  <defs>
    <clipPath id="clip-path">
      <rect id="矩形_17" data-name="矩形 17" width="1280" height="600" fill="#fff" stroke="#707070" stroke-width="1"/>
    </clipPath>
    <filter id="椭圆_4" x="440.631" y="-206.652" width="628.638" height="627.635" filterUnits="userSpaceOnUse">
      <feOffset dx="-15" dy="15" input="SourceAlpha"/>
      <feGaussianBlur stdDeviation="15" result="blur"/>
      <feFlood flood-opacity="0.078"/>
      <feComposite operator="in" in2="blur"/>
      <feComposite in="SourceGraphic"/>
    </filter>
    <filter id="路径_254" x="904.377" y="180.722" width="465.747" height="509.492" filterUnits="userSpaceOnUse">
      <feOffset input="SourceAlpha"/>
      <feGaussianBlur stdDeviation="30" result="blur-2"/>
      <feFlood flood-opacity="0.078"/>
      <feComposite operator="in" in2="blur-2"/>
      <feComposite in="SourceGraphic"/>
    </filter>
    <filter id="椭圆_6" x="-209.407" y="-284.418" width="579.635" height="580.638" filterUnits="userSpaceOnUse">
      <feOffset input="SourceAlpha"/>
      <feGaussianBlur stdDeviation="30" result="blur-3"/>
      <feFlood flood-opacity="0.078"/>
      <feComposite operator="in" in2="blur-3"/>
      <feComposite in="SourceGraphic"/>
    </filter>
    <filter id="椭圆_6-2" x="247.593" y="345.582" width="420.635" height="421.638" filterUnits="userSpaceOnUse">
      <feOffset input="SourceAlpha"/>
      <feGaussianBlur stdDeviation="30" result="blur-4"/>
      <feFlood flood-opacity="0.078"/>
      <feComposite operator="in" in2="blur-4"/>
      <feComposite in="SourceGraphic"/>
    </filter>
  </defs>
  <g id="蒙版组_1" data-name="蒙版组 1" clip-path="url(#clip-path)">
    <g id="组_8" data-name="组 8" transform="translate(173.968 -113.99)">
      <g id="组_4" data-name="组 4" transform="translate(-343.376 -314.428)">
        <g transform="matrix(1, 0, 0, 1, 169.41, 428.42)" filter="url(#椭圆_4)">
          <ellipse id="椭圆_4-2" data-name="椭圆 4" cx="269.319" cy="268.818" rx="269.319" ry="268.818" transform="translate(500.63 -176.65)" fill="#181818"/>
        </g>
        <g transform="matrix(1, 0, 0, 1, 169.41, 428.42)" filter="url(#路径_254)">
          <path id="路径_254-2" data-name="路径 254" d="M7064.327,444.59,6778.58,728.41l45.672,45.672h240.075Z" transform="translate(-5784.2 -173.87)" fill="#181818"/>
        </g>
        <g transform="matrix(1, 0, 0, 1, 169.41, 428.42)" filter="url(#椭圆_6)">
          <ellipse id="椭圆_6-3" data-name="椭圆 6" cx="199.818" cy="200.319" rx="199.818" ry="200.319" transform="translate(-119.41 -194.42)" fill="#181818"/>
        </g>
        <g transform="matrix(1, 0, 0, 1, 169.41, 428.42)" filter="url(#椭圆_6-2)">
          <ellipse id="椭圆_6-4" data-name="椭圆 6" cx="120.318" cy="120.819" rx="120.318" ry="120.819" transform="translate(337.59 435.58)" fill="#181818"/>
        </g>
      </g>
    </g>
  </g>
</svg>
